<svg width="1024" height="256" viewBox="0 0 1024 256" fill="none" xmlns="http://www.w3.org/2000/svg">
  <!-- Airbnb Logo Symbol -->
  <path d="M128 24C162.242 24 190 51.7584 190 86C190 120.242 162.242 148 128 148C93.7584 148 66 120.242 66 86C66 51.7584 93.7584 24 128 24Z" fill="#FF5A5F"/>
  <path d="M128 58C145.673 58 160 72.327 160 90C160 115.405 128 148 128 148C128 148 96 115.405 96 90C96 72.327 110.327 58 128 58Z" fill="white"/>
  <path d="M128 78C135.732 78 142 84.268 142 92C142 99.732 135.732 106 128 106C120.268 106 114 99.732 114 92C114 84.268 120.268 78 128 78Z" fill="#FF5A5F"/>
  
  <!-- Stylized text "airbnb" -->
  <g fill="#FF5A5F">
    <path d="M276 125.5C276 113.074 286.074 103 298.5 103C310.926 103 321 113.074 321 125.5V159.5C321 171.926 310.926 182 298.5 182C286.074 182 276 171.926 276 159.5V125.5ZM298.5 112C291.044 112 285 118.044 285 125.5V159.5C285 166.956 291.044 173 298.5 173C305.956 173 312 166.956 312 159.5V125.5C312 118.044 305.956 112 298.5 112Z"/>
    <circle cx="376" cy="87" r="6" fill="#FF5A5F"/>
    <rect x="372" y="103" width="8" height="70" fill="#FF5A5F"/>
    <path d="M420 103V135.5C420 148.479 430.521 159 443.5 159H458V168H443.5C425.551 168 411 153.449 411 135.5V103H420Z"/>
    <path d="M486 88V135.5C486 148.479 496.521 159 509.5 159C522.479 159 533 148.479 533 135.5V125.5C533 112.521 522.479 102 509.5 102C496.521 102 486 112.521 486 125.5V88H477V159.5C477 176.449 491.551 191 508.5 191C525.449 191 540 176.449 540 159.5V103H533V88H486Z"/>
    <path d="M576 103V135.5C576 148.479 586.521 159 599.5 159C612.479 159 623 148.479 623 135.5V103H632V159.5C632 176.449 617.449 191 600.5 191C583.551 191 569 176.449 569 159.5V103H576Z"/>
    <path d="M659 88V135.5C659 148.479 669.521 159 682.5 159C695.479 159 706 148.479 706 135.5V125.5C706 112.521 695.479 102 682.5 102C669.521 102 659 112.521 659 125.5V88H650V159.5C650 176.449 664.551 191 681.5 191C698.449 191 713 176.449 713 159.5V103H706V88H659Z"/>
  </g>
</svg>
