<svg width="512" height="140" viewBox="0 0 512 140" fill="none" xmlns="http://www.w3.org/2000/svg">
  <!-- Simplified, clean Airbnb logo -->
  <!-- Bélo symbol -->
  <path d="M70 35C48.9 35 32 51.9 32 73C32 94.1 48.9 111 70 111C91.1 111 108 94.1 108 73C108 51.9 91.1 35 70 35ZM70 50C83.8 50 95 61.2 95 75C95 88.8 83.8 100 70 100C56.2 100 45 88.8 45 75C45 61.2 56.2 50 70 50ZM70 60C77.7 60 84 66.3 84 74C84 81.7 77.7 88 70 88C62.3 88 56 81.7 56 74C56 66.3 62.3 60 70 60Z" fill="#FF5A5F"/>
  
  <!-- airbnb text with clean typography -->
  <g fill="#FF5A5F">
    <!-- a -->
    <path d="M140 95C140 87.3 146.3 81 154 81C161.7 81 168 87.3 168 95V110C168 117.7 161.7 124 154 124C146.3 124 140 117.7 140 110V95ZM154 71C140.7 71 130 81.7 130 95V110C130 123.3 140.7 134 154 134C167.3 134 178 123.3 178 110V95C178 81.7 167.3 71 154 71Z"/>
    
    <!-- i -->
    <circle cx="198" cy="56" r="6" fill="#FF5A5F"/>
    <rect x="192" y="71" width="12" height="53" rx="1" fill="#FF5A5F"/>
    
    <!-- r -->
    <path d="M224 71V95C224 103.8 231.2 111 240 111H248V121H240C225.6 121 214 109.4 214 95V71H224Z"/>
    
    <!-- b -->
    <path d="M268 46V95C268 103.8 275.2 111 284 111C292.8 111 300 103.8 300 95V88C300 79.2 292.8 72 284 72C275.2 72 268 79.2 268 88V46H258V110C258 123.3 268.7 134 282 134C295.3 134 306 123.3 306 110V71H300V46H268Z"/>
    
    <!-- n -->
    <path d="M326 71V95C326 103.8 333.2 111 342 111C350.8 111 358 103.8 358 95V71H368V110C368 123.3 357.3 134 344 134C330.7 134 320 123.3 320 110V71H326Z"/>
    
    <!-- b -->
    <path d="M388 46V95C388 103.8 395.2 111 404 111C412.8 111 420 103.8 420 95V88C420 79.2 412.8 72 404 72C395.2 72 388 79.2 388 88V46H378V110C378 123.3 388.7 134 402 134C415.3 134 426 123.3 426 110V71H420V46H388Z"/>
  </g>
</svg>
